<?xml version="1.0" encoding="UTF-8"?>
<svg width="512" height="512" viewBox="0 0 512 512" fill="none" xmlns="http://www.w3.org/2000/svg">
  <rect width="512" height="512" rx="128" fill="url(#gradient)"/>
  <path d="M144 256C144 194.562 194.562 144 256 144C317.438 144 368 194.562 368 256C368 317.438 317.438 368 256 368C194.562 368 144 317.438 144 256ZM256 176C212.109 176 176 212.109 176 256C176 299.891 212.109 336 256 336C299.891 336 336 299.891 336 256C336 212.109 299.891 176 256 176ZM248 208H264V264H320V280H248V208Z" fill="white"/>
  <defs>
    <linearGradient id="gradient" x1="0" y1="0" x2="512" y2="512" gradientUnits="userSpaceOnUse">
      <stop offset="0%" style="stop-color:#3b82f6"/>
      <stop offset="100%" style="stop-color:#8b5cf6"/>
    </linearGradient>
  </defs>
</svg> 